<?xml version="1.0" encoding="utf-8"?>
<svg xmlns="http://www.w3.org/2000/svg" style="margin: auto; background: rgb(204, 233, 248); display: block; shape-rendering: auto;" width="234" height="45" preserveAspectRatio="xMidYMid">
<style type="text/css">
  text {
    text-anchor: middle; font-size: 32px; opacity: 0;
  }
</style>
<g style="transform-origin: 117px 22.5px; transform: scale(0.4);">
<g transform="translate(117,22.5)">
  <g transform="translate(0,0)"><g class="path" style="transform: scale(0.91); transform-origin: -231.32px 2.99165px; animation: 1s linear -0.612857s infinite normal forwards running breath-9e171c66-6841-4834-b2aa-ecd1b0bed7e1;"><path d="M46.48-44.24L46.48-44.24L46.48-44.24Q40.16-46.96 32.76-46.96L32.76-46.96L32.76-46.96Q25.36-46.96 20.76-42.24L20.76-42.24L20.76-42.24Q16.16-37.52 16.16-29.92L16.16-29.92L14.40-29.92L14.40-29.92Q14.40-38.24 19.52-43.48L19.52-43.48L19.52-43.48Q24.64-48.72 32.64-48.72L32.64-48.72L32.64-48.72Q39.04-48.72 46.48-46.24L46.48-46.24L46.48-46.24Q55.04-43.12 65.04-43.12L65.04-43.12L65.04-41.44L65.04-41.44Q59.04-41.44 55.44-42L55.44-42L55.44-42Q55.36-41.68 54.88-39.36L54.88-39.36L54.88-39.36Q51.92-26.24 50.08-18.48L50.08-18.48L71.52-18.48L79.68-53.20L81.36-53.20L70.16-5.12L70.16-5.12Q69.44-2.16 69.44-1.12L69.44-1.12L69.44-1.12Q69.44 2.24 72.56 2.24L72.56 2.24L72.56 2.24Q74.80 2.24 76.48-0.08L76.48-0.08L77.60 0.88L77.60 0.88Q77.04 1.92 75.60 2.84L75.60 2.84L75.60 2.84Q74.16 3.76 72.12 3.76L72.12 3.76L72.12 3.76Q70.08 3.76 68.92 2.40L68.92 2.40L68.92 2.40Q67.76 1.04 67.76-0.88L67.76-0.88L68.72-6.16L71.20-17.04L49.68-17.04L49.68-17.04Q48.80-13.68 47.92-9.76L47.92-9.76L47.92-9.76Q47.04-5.84 45.80-2.08L45.80-2.08L45.80-2.08Q44.56 1.68 42.40 5.68L42.40 5.68L42.40 5.68Q40.24 9.68 37.56 12.20L37.56 12.20L37.56 12.20Q34.88 14.72 30.84 16.36L30.84 16.36L30.84 16.36Q26.80 18 22.12 18L22.12 18L22.12 18Q17.44 18 13.28 16.24L13.28 16.24L13.28 16.24Q9.12 14.48 6.32 11.36L6.32 11.36L6.32 11.36Q1.52 5.84 1.52-2L1.52-2L1.52-2Q1.52-3.28 1.60-4.56L1.60-4.56L3.36-4.32L3.36-4.32Q3.28-3.20 3.28-2.08L3.28-2.08L3.28-2.08Q3.28 5.36 7.80 10.36L7.80 10.36L7.80 10.36Q12.32 15.36 20 15.36L20 15.36L20 15.36Q27.68 15.36 30.80 11.28L30.80 11.28L30.80 11.28Q33.92 7.20 36.76-4.40L36.76-4.40L36.76-4.40Q39.60-16 46.48-44.24" fill="#17153a" stroke="none" stroke-width="none" transform="translate(-272.759991645813,20.59165821347917)" style="fill: rgb(23, 21, 58);"></path></g><g class="path" style="transform: scale(0.91); transform-origin: -172.2px 5.39166px; animation: 1s linear -0.565714s infinite normal forwards running breath-9e171c66-6841-4834-b2aa-ecd1b0bed7e1;"><path d="M111.52 0.72L111.52 0.72L111.52 0.72Q104.48 0.72 103.84-5.44L103.84-5.44L103.84-5.44Q100.32 0.72 94.96 0.72L94.96 0.72L94.96 0.72Q89.60 0.72 86.44-2.52L86.44-2.52L86.44-2.52Q83.28-5.76 83.28-11.60L83.28-11.60L83.28-11.60Q83.28-20.72 87.76-25.92L87.76-25.92L87.76-25.92Q92.24-31.12 99.36-31.12L99.36-31.12L99.36-31.12Q105.20-31.12 107.12-25.60L107.12-25.60L107.12-25.60Q107.52-28 108-30.40L108-30.40L108-30.40Q113.92-30.40 116.80-30.88L116.80-30.88L117.84-31.12L112.32-0.88L112.32-0.88Q114.72-1.12 116.32-3.12L116.32-3.12L117.52-2.16L117.52-2.16Q115.12 0.72 111.52 0.72zM92.32-7.52L92.32-7.52Q92.32-3.92 93.24-2.52L93.24-2.52L93.24-2.52Q94.16-1.12 96.08-1.12L96.08-1.12L96.08-1.12Q98-1.12 100-3.20L100-3.20L100-3.20Q102.64-5.92 104.24-10.08L104.24-10.08L104.24-10.08Q104.48-11.12 105.16-15.08L105.16-15.08L105.16-15.08Q105.84-19.04 106.32-21.60L106.32-21.60L106.32-21.60Q106.08-24.64 104.64-26.88L104.64-26.88L104.64-26.88Q103.20-29.12 101.04-29.12L101.04-29.12L101.04-29.12Q97.12-29.12 94.72-22.12L94.72-22.12L94.72-22.12Q92.32-15.12 92.32-7.52L92.32-7.52" fill="#17153a" stroke="none" stroke-width="none" transform="translate(-272.759991645813,20.59165821347917)" style="fill: rgb(23, 21, 58);"></path></g><g class="path" style="transform: scale(0.91); transform-origin: -136.04px 5.39166px; animation: 1s linear -0.518571s infinite normal forwards running breath-9e171c66-6841-4834-b2aa-ecd1b0bed7e1;"><path d="M128.80-29.60L128.80-29.60L128.80-29.60Q126.80-29.60 125.44-28.24L125.44-28.24L125.44-28.24Q124.08-26.88 124.08-25.04L124.08-25.04L124.08-25.04Q124.08-23.20 125.12-21.28L125.12-21.28L123.68-20.72L123.68-20.72Q122.40-22.32 122.40-24.96L122.40-24.96L122.40-24.96Q122.40-27.60 124.20-29.36L124.20-29.36L124.20-29.36Q126-31.12 128.56-31.12L128.56-31.12L128.56-31.12Q131.12-31.12 135.40-30.36L135.40-30.36L135.40-30.36Q139.68-29.60 145-29.64L145-29.64L145-29.64Q150.32-29.68 152.88-30.32L152.88-30.32L131.68-2.08L131.68-2.08Q135.92-0.80 140.96-0.72L140.96-0.72L140.96-0.72Q144.16-0.72 146.52-2.52L146.52-2.52L146.52-2.52Q148.88-4.32 149.60-6.08L149.60-6.08L150.32-7.84L151.68-7.36L151.68-7.36Q150.96-4.48 148.40-1.88L148.40-1.88L148.40-1.88Q145.84 0.72 140.76 0.72L140.76 0.72L140.76 0.72Q135.68 0.72 131.52-0.40L131.52-0.40L131.52-0.40Q127.36-1.52 125.44-1.52L125.44-1.52L125.44-1.52Q123.52-1.52 122 0L122 0L120.56 0L141.52-28.32L141.52-28.32Q137.36-28.48 134.08-29.04L134.08-29.04L134.08-29.04Q130.80-29.60 128.80-29.60" fill="#17153a" stroke="none" stroke-width="none" transform="translate(-272.759991645813,20.59165821347917)" style="fill: rgb(23, 21, 58);"></path></g><g class="path" style="transform: scale(0.91); transform-origin: -103.48px 5.39166px; animation: 1s linear -0.471429s infinite normal forwards running breath-9e171c66-6841-4834-b2aa-ecd1b0bed7e1;"><path d="M172.80-31.12L172.80-31.12L172.80-31.12Q182.96-31.12 182.96-23.04L182.96-23.04L182.96-23.04Q182.96-18 178.20-15.40L178.20-15.40L178.20-15.40Q173.44-12.80 164.64-12.72L164.64-12.72L164.64-12.72Q164.48-9.84 164.48-8.16L164.48-8.16L164.48-8.16Q164.48-4.56 166.12-2.84L166.12-2.84L166.12-2.84Q167.76-1.12 170.24-1.12L170.24-1.12L170.24-1.12Q172.72-1.12 174.76-2.08L174.76-2.08L174.76-2.08Q176.80-3.04 178-4.36L178-4.36L178-4.36Q179.20-5.68 180.08-7.12L180.08-7.12L180.08-7.12Q181.68-9.76 181.68-10.48L181.68-10.48L183.12-9.84L183.12-9.84Q182.88-8.56 181.68-6.44L181.68-6.44L181.68-6.44Q180.48-4.32 179.04-2.96L179.04-2.96L179.04-2.96Q177.60-1.60 174.80-0.44L174.80-0.44L174.80-0.44Q172 0.72 168.56 0.72L168.56 0.72L168.56 0.72Q162.08 0.72 158.76-2.36L158.76-2.36L158.76-2.36Q155.44-5.44 155.44-10.80L155.44-10.80L155.44-10.80Q155.44-20.32 160.16-25.72L160.16-25.72L160.16-25.72Q164.88-31.12 172.80-31.12zM180.96-23.04L180.96-23.04Q180.96-25.68 179.40-27.40L179.40-27.40L179.40-27.40Q177.84-29.12 174.76-29.12L174.76-29.12L174.76-29.12Q171.68-29.12 168.76-25.44L168.76-25.44L168.76-25.44Q165.84-21.76 164.88-14.56L164.88-14.56L164.88-14.56Q180.96-14.64 180.96-23.04L180.96-23.04" fill="#17153a" stroke="none" stroke-width="none" transform="translate(-272.759991645813,20.59165821347917)" style="fill: rgb(23, 21, 58);"></path></g><g class="path" style="transform: scale(0.91); transform-origin: -57.32px 5.39166px; animation: 1s linear -0.424286s infinite normal forwards running breath-9e171c66-6841-4834-b2aa-ecd1b0bed7e1;"><path d="M217.76-0.88L217.76-0.88L217.76-0.88Q219.68-0.88 221.76-3.12L221.76-3.12L222.96-2.16L222.96-2.16Q222.40-1.04 220.48-0.16L220.48-0.16L220.48-0.16Q218.56 0.72 216.24 0.72L216.24 0.72L216.24 0.72Q208.96 0.72 208.96-5.84L208.96-5.84L208.96-5.84Q208.96-8.64 210.40-15.84L210.40-15.84L210.40-15.84Q211.84-23.04 211.84-25.28L211.84-25.28L211.84-25.28Q211.84-28.72 208.56-28.72L208.56-28.72L208.56-28.72Q203.60-28.72 200.24-16L200.24-16L197.36 0L187.76 0L193.04-29.52L193.04-29.52Q190.64-29.28 189.04-27.28L189.04-27.28L187.84-28.24L187.84-28.24Q190.24-31.12 193.88-31.12L193.88-31.12L193.88-31.12Q197.52-31.12 199.52-29.28L199.52-29.28L199.52-29.28Q201.52-27.44 201.52-24.08L201.52-24.08L201.52-23.84L201.52-23.84Q204.64-31.12 210.96-31.12L210.96-31.12L210.96-31.12Q215.44-31.12 218.04-28.68L218.04-28.68L218.04-28.68Q220.64-26.24 220.88-21.84L220.88-21.84L220.88-21.84Q222.40-26.24 224.72-28.68L224.72-28.68L224.72-28.68Q227.04-31.12 231.44-31.12L231.44-31.12L231.44-31.12Q235.84-31.12 238.48-28.44L238.48-28.44L238.48-28.44Q241.12-25.76 241.12-21.04L241.12-21.04L241.12-21.04Q241.12-18.56 239.60-11.48L239.60-11.48L239.60-11.48Q238.08-4.40 237.92-0.88L237.92-0.88L237.92-0.88Q239.84-0.88 241.92-3.12L241.92-3.12L243.12-2.16L243.12-2.16Q242.56-1.04 240.64-0.16L240.64-0.16L240.64-0.16Q238.72 0.72 236.40 0.72L236.40 0.72L236.40 0.72Q229.12 0.72 229.12-5.84L229.12-5.84L229.12-5.84Q229.12-8.64 230.56-15.84L230.56-15.84L230.56-15.84Q232-23.04 232-25.28L232-25.28L232-25.28Q232-28.72 228.72-28.72L228.72-28.72L228.72-28.72Q222.96-28.72 219.44-11.60L219.44-11.60L219.44-11.60Q217.92-4.32 217.76-0.88" fill="#17153a" stroke="none" stroke-width="none" transform="translate(-272.759991645813,20.59165821347917)" style="fill: rgb(23, 21, 58);"></path></g><g class="path" style="transform: scale(0.91); transform-origin: -2.87997px 0.871658px; animation: 1s linear -0.377143s infinite normal forwards running breath-9e171c66-6841-4834-b2aa-ecd1b0bed7e1;"><path d="M265.84 9.84L263.44 9.84L273.92-49.28L276.32-49.28L265.84 9.84" fill="#17153a" stroke="none" stroke-width="none" transform="translate(-272.759991645813,20.59165821347917)" style="fill: rgb(23, 21, 58);"></path></g><g class="path" style="transform: scale(0.91); transform-origin: 68.56px 2.15166px; animation: 1s linear -0.33s infinite normal forwards running breath-9e171c66-6841-4834-b2aa-ecd1b0bed7e1;"><path d="M374.08 3.28L374.08 3.28L374.08 3.28Q376.16 3.28 378.08 1.04L378.08 1.04L379.28 2L379.28 2Q379.04 2.32 378.64 2.80L378.64 2.80L378.64 2.80Q378.24 3.28 376.68 4.08L376.68 4.08L376.68 4.08Q375.12 4.88 373.28 4.88L373.28 4.88L373.28 4.88Q364.32 4.88 364.32-2.88L364.32-2.88L364.32-2.88Q364.32-5.28 364.88-10L364.88-10L364.88-10Q361.04-8.80 358-8.80L358-8.80L358-8.80Q352.64-8.80 347.28-12.08L347.28-12.08L347.28-12.08Q344.16-6.72 341.44-2.92L341.44-2.92L341.44-2.92Q338.72 0.88 335.12 4.48L335.12 4.48L335.12 4.48Q327.68 11.76 317.16 11.76L317.16 11.76L317.16 11.76Q306.64 11.76 300.40 5.04L300.40 5.04L300.40 5.04Q294.88-1.12 294.88-9.96L294.88-9.96L294.88-9.96Q294.88-18.80 300.56-25.68L300.56-25.68L300.56-25.68Q306.24-32.56 315.28-32.56L315.28-32.56L315.28-32.56Q324.32-32.56 329.04-27.20L329.04-27.20L329.04-27.20Q330.16-25.76 330.64-25.04L330.64-25.04L330.64-25.04Q334.96-23.20 340.48-18.96L340.48-18.96L340.48-18.96Q344.64-15.60 346.64-14.32L346.64-14.32L346.64-14.32Q347.76-16.40 349.72-19.92L349.72-19.92L349.72-19.92Q351.68-23.44 352.72-25.28L352.72-25.28L352.72-25.28Q353.76-27.12 355.84-30.48L355.84-30.48L355.84-30.48Q357.92-33.84 359.24-35.56L359.24-35.56L359.24-35.56Q360.56-37.28 362.76-39.88L362.76-39.88L362.76-39.88Q364.96-42.48 366.80-43.76L366.80-43.76L366.80-43.76Q372.32-47.68 376.08-48.32L376.08-48.32L376.08-48.32Q378.16-48.64 379.60-48.64L379.60-48.64L379.60-48.64Q381.04-48.64 382.80-48.60L382.80-48.60L382.80-48.60Q384.56-48.56 387.76-47.68L387.76-47.68L387.36-46.16L387.36-46.16Q385.44-46.72 383.28-46.96L383.28-46.96L383.28-46.96Q375.28-15.52 374.08 3.28zM333.20-15.76L333.20-15.76L333.20-15.76Q333.20-9.84 329.80-5.28L329.80-5.28L329.80-5.28Q326.40-0.72 320.64-0.72L320.64-0.72L320.64-0.72Q316.88-0.72 314.52-2.96L314.52-2.96L314.52-2.96Q312.16-5.20 312.16-7.60L312.16-7.60L312.16-7.60Q312.16-10 312.88-11.56L312.88-11.56L312.88-11.56Q313.60-13.12 314.52-13.92L314.52-13.92L314.52-13.92Q315.44-14.72 316.56-15.20L316.56-15.20L316.56-15.20Q318.08-16 318.96-16L318.96-16L319.12-14.40L319.12-14.40Q317.12-14.40 315.44-12.48L315.44-12.48L315.44-12.48Q313.76-10.56 313.76-8.16L313.76-8.16L313.76-8.16Q313.76-5.76 315.64-4.04L315.64-4.04L315.64-4.04Q317.52-2.32 320.64-2.32L320.64-2.32L320.64-2.32Q325.76-2.32 328.72-6.32L328.72-6.32L328.72-6.32Q331.68-10.32 331.68-15.20L331.68-15.20L331.68-15.20Q331.68-20.08 329.68-23.68L329.68-23.68L329.68-23.68Q325.28-25.36 320.96-25.36L320.96-25.36L320.96-25.36Q312.64-25.36 309.20-17.60L309.20-17.60L307.68-18.08L307.68-18.08Q308.56-20.08 310.48-22.40L310.48-22.40L310.48-22.40Q314.24-26.96 320.96-26.96L320.96-26.96L320.96-26.96Q324.56-26.96 328.08-25.92L328.08-25.92L327.92-26.16L327.92-26.16Q323.52-30.96 315.24-30.96L315.24-30.96L315.24-30.96Q306.96-30.96 301.72-24.56L301.72-24.56L301.72-24.56Q296.48-18.16 296.48-9.88L296.48-9.88L296.48-9.88Q296.48-1.60 301.60 3.92L301.60 3.92L301.60 3.92Q307.36 10.16 317.68 10.16L317.68 10.16L317.68 10.16Q327.12 10.16 334.16 3.04L334.16 3.04L334.16 3.04Q337.68-0.40 340.28-4.08L340.28-4.08L340.28-4.08Q342.88-7.76 345.92-12.96L345.92-12.96L345.92-12.96Q343.20-14.72 339.32-17.80L339.32-17.80L339.32-17.80Q335.44-20.88 331.84-22.72L331.84-22.72L331.84-22.72Q333.20-19.36 333.20-15.76zM351.12-18.96L348.08-13.44L348.08-13.44Q353.20-10.40 357.48-10.40L357.48-10.40L357.48-10.40Q361.76-10.40 365.12-11.76L365.12-11.76L365.12-11.76Q367.04-25.28 372.32-45.36L372.32-45.36L372.32-45.36Q365.92-42.32 360.56-34.56L360.56-34.56L360.56-34.56Q356.64-28.96 351.12-18.96L351.12-18.96" fill="#17153a" stroke="none" stroke-width="none" transform="translate(-272.759991645813,20.59165821347917)" style="fill: rgb(23, 21, 58);"></path></g><g class="path" style="transform: scale(0.91); transform-origin: 126.08px -4.96834px; animation: 1s linear -0.282857s infinite normal forwards running breath-9e171c66-6841-4834-b2aa-ecd1b0bed7e1;"><path d="M401.92-2.88L401.92-2.88L401.92-2.88Q400.88-1.52 399.08-0.40L399.08-0.40L399.08-0.40Q397.28 0.72 394.40 0.72L394.40 0.72L394.40 0.72Q391.52 0.72 389.52-1.12L389.52-1.12L389.52-1.12Q387.52-2.96 387.52-6.32L387.52-6.32L387.52-6.32Q387.52-6.96 387.68-8.40L387.68-8.40L392.88-37.20L392.88-37.20Q394.32-45.12 396.84-48.48L396.84-48.48L396.84-48.48Q399.36-51.84 403.52-51.84L403.52-51.84L403.52-51.84Q406.40-51.84 408.28-49.68L408.28-49.68L408.28-49.68Q410.16-47.52 410.16-43.12L410.16-43.12L410.16-43.12Q410.16-38.72 406.76-30.56L406.76-30.56L406.76-30.56Q403.36-22.40 403.36-18.64L403.36-18.64L401.92-18.64L401.92-18.64Q401.92-22.88 405.28-30.76L405.28-30.76L405.28-30.76Q408.64-38.64 408.64-43.36L408.64-43.36L408.64-43.36Q408.64-46.24 407.32-48.32L407.32-48.32L407.32-48.32Q406-50.40 404.08-50.40L404.08-50.40L404.08-50.40Q404-48.32 401.32-31.72L401.32-31.72L401.32-31.72Q398.64-15.12 396-0.88L396-0.88L396-0.88Q398.24-0.88 400.16-3.20L400.16-3.20L400.16-3.20Q402.08-5.52 402.88-7.84L402.88-7.84L403.76-10.24L405.20-9.60L405.20-9.60Q404.96-8.48 403.96-6.36L403.96-6.36L403.96-6.36Q402.96-4.24 401.92-2.88" fill="#17153a" stroke="none" stroke-width="none" transform="translate(-272.759991645813,20.59165821347917)" style="fill: rgb(23, 21, 58);"></path></g><g class="path" style="transform: scale(0.91); transform-origin: 151.8px 5.03166px; animation: 1s linear -0.235714s infinite normal forwards running breath-9e171c66-6841-4834-b2aa-ecd1b0bed7e1;"><path d="M411.20-27.28L410-28.24L410-28.24Q412.40-31.12 416.04-31.12L416.04-31.12L416.04-31.12Q419.68-31.12 421.68-29.28L421.68-29.28L421.68-29.28Q423.68-27.44 423.68-24.08L423.68-24.08L423.68-23.60L423.68-23.60Q427.28-31.12 433.04-31.12L433.04-31.12L433.04-31.12Q439.20-31.12 439.20-24.72L439.20-24.72L439.20-24.72Q439.20-22.08 437.44-19.12L437.44-19.12L437.44-19.12Q435.68-16.16 433.92-13.48L433.92-13.48L433.92-13.48Q432.16-10.80 432.16-8.72L432.16-8.72L430.24-8.72L430.24-8.72Q430.24-11.68 433.68-16.72L433.68-16.72L433.68-16.72Q437.12-21.76 437.12-24.52L437.12-24.52L437.12-24.52Q437.12-27.28 436.04-28.28L436.04-28.28L436.04-28.28Q434.96-29.28 432.84-29.28L432.84-29.28L432.84-29.28Q430.72-29.28 428.68-27.44L428.68-27.44L428.68-27.44Q426.64-25.60 425.28-22.80L425.28-22.80L425.28-22.80Q423.12-18.64 422.40-16L422.40-16L422.40-15.92L419.52 0L409.92 0L415.20-29.52L415.20-29.52Q412.80-29.28 411.20-27.28L411.20-27.28" fill="#17153a" stroke="none" stroke-width="none" transform="translate(-272.759991645813,20.59165821347917)" style="fill: rgb(23, 21, 58);"></path></g><g class="path" style="transform: scale(0.91); transform-origin: 180.52px -2.52834px; animation: 1s linear -0.188571s infinite normal forwards running breath-9e171c66-6841-4834-b2aa-ecd1b0bed7e1;"><path d="M459.68-51.84L459.68-51.84L459.68-51.84Q462.56-51.84 464.44-49.68L464.44-49.68L464.44-49.68Q466.32-47.52 466.32-43.20L466.32-43.20L466.32-43.20Q466.32-38.88 462.88-30.40L462.88-30.40L465.92-30.40L465.76-28.96L462.24-28.96L462.24-28.96Q459.52-22.16 459.52-18.64L459.52-18.64L458.08-18.64L458.08-18.64Q458.08-22.80 460.72-28.96L460.72-28.96L456.08-28.96L456.08-28.96Q453.68-16.40 449.92 5.60L449.92 5.60L440.24 5.60L446.40-28.96L441.52-28.96L441.68-30.40L446.64-30.40L447.92-37.28L447.92-37.28Q449.20-45.20 451.88-48.52L451.88-48.52L451.88-48.52Q454.56-51.84 459.68-51.84zM464.80-43.36L464.80-43.36L464.80-43.36Q464.80-46.24 463.48-48.32L463.48-48.32L463.48-48.32Q462.16-50.40 460.24-50.40L460.24-50.40L460.24-50.40Q459.44-47.28 456.32-30.40L456.32-30.40L461.28-30.40L461.28-30.40Q464.80-38.40 464.80-43.36" fill="#17153a" stroke="none" stroke-width="none" transform="translate(-272.759991645813,20.59165821347917)" style="fill: rgb(23, 21, 58);"></path></g><g class="path" style="transform: scale(0.91); transform-origin: 209.4px 5.39166px; animation: 1s linear -0.141429s infinite normal forwards running breath-9e171c66-6841-4834-b2aa-ecd1b0bed7e1;"><path d="M493.12 0.72L493.12 0.72L493.12 0.72Q486.08 0.72 485.44-5.44L485.44-5.44L485.44-5.44Q481.92 0.72 476.56 0.72L476.56 0.72L476.56 0.72Q471.20 0.72 468.04-2.52L468.04-2.52L468.04-2.52Q464.88-5.76 464.88-11.60L464.88-11.60L464.88-11.60Q464.88-20.72 469.36-25.92L469.36-25.92L469.36-25.92Q473.84-31.12 480.96-31.12L480.96-31.12L480.96-31.12Q486.80-31.12 488.72-25.60L488.72-25.60L488.72-25.60Q489.12-28 489.60-30.40L489.60-30.40L489.60-30.40Q495.52-30.40 498.40-30.88L498.40-30.88L499.44-31.12L493.92-0.88L493.92-0.88Q496.32-1.12 497.92-3.12L497.92-3.12L499.12-2.16L499.12-2.16Q496.72 0.72 493.12 0.72zM473.92-7.52L473.92-7.52Q473.92-3.92 474.84-2.52L474.84-2.52L474.84-2.52Q475.76-1.12 477.68-1.12L477.68-1.12L477.68-1.12Q479.60-1.12 481.60-3.20L481.60-3.20L481.60-3.20Q484.24-5.92 485.84-10.08L485.84-10.08L485.84-10.08Q486.08-11.12 486.76-15.08L486.76-15.08L486.76-15.08Q487.44-19.04 487.92-21.60L487.92-21.60L487.92-21.60Q487.68-24.64 486.24-26.88L486.24-26.88L486.24-26.88Q484.80-29.12 482.64-29.12L482.64-29.12L482.64-29.12Q478.72-29.12 476.32-22.12L476.32-22.12L476.32-22.12Q473.92-15.12 473.92-7.52L473.92-7.52" fill="#17153a" stroke="none" stroke-width="none" transform="translate(-272.759991645813,20.59165821347917)" style="fill: rgb(23, 21, 58);"></path></g><g class="path" style="transform: scale(0.91); transform-origin: 243.4px -0.528341px; animation: 1s linear -0.0942857s infinite normal forwards running breath-9e171c66-6841-4834-b2aa-ecd1b0bed7e1;"><path d="M504.48-30.40L508.56-30.40L510.72-42.24L510.72-42.24Q516.64-42.24 519.52-42.72L519.52-42.72L520.56-42.96L520.56-42.96Q519.44-37.36 518.08-30.40L518.08-30.40L528-30.40L527.84-28.96L517.84-28.96L517.84-28.96Q513.84-8.32 513.84-4.08L513.84-4.08L513.84-4.08Q513.84-1.52 516.56-1.52L516.56-1.52L516.56-1.52Q519.28-1.52 521.52-4.96L521.52-4.96L521.52-4.96Q523.76-8.40 524.72-12.40L524.72-12.40L526.16-11.92L526.16-11.92Q523.20 0.72 513.92 0.72L513.92 0.72L513.92 0.72Q510.08 0.72 507.52-1.40L507.52-1.40L507.52-1.40Q504.96-3.52 504.96-7.32L504.96-7.32L504.96-7.32Q504.96-11.12 508.24-28.96L508.24-28.96L504.32-28.96L504.48-30.40" fill="#17153a" stroke="none" stroke-width="none" transform="translate(-272.759991645813,20.59165821347917)" style="fill: rgb(23, 21, 58);"></path></g><g class="path" style="transform: scale(0.91); transform-origin: 264.72px 5.39166px; animation: 1s linear -0.0471429s infinite normal forwards running breath-9e171c66-6841-4834-b2aa-ecd1b0bed7e1;"><path d="M544.16-2.16L544.16-2.16Q541.76 0.72 538.16 0.72L538.16 0.72L538.16 0.72Q534.56 0.72 532.52-1.12L532.52-1.12L532.52-1.12Q530.48-2.96 530.48-5.92L530.48-5.92L530.48-5.92Q530.48-6.96 531.76-14.64L531.76-14.64L534.40-28.96L531.04-28.96L531.20-30.40L534.64-30.40L534.64-30.40Q540.56-30.40 543.36-30.88L543.36-30.88L544.48-31.12L538.96-0.88L538.96-0.88Q541.36-1.12 542.96-3.12L542.96-3.12L544.16-2.16" fill="#17153a" stroke="none" stroke-width="none" transform="translate(-272.759991645813,20.59165821347917)" style="fill: rgb(23, 21, 58);"></path></g><g class="path" style="transform: scale(0.91); transform-origin: 268.48px -22.3283px; animation: 1s linear 0s infinite normal forwards running breath-9e171c66-6841-4834-b2aa-ecd1b0bed7e1;"><path d="M537.12-38.80L537.12-38.80L537.12-38.80Q535.44-40.48 535.44-42.88L535.44-42.88L535.44-42.88Q535.44-45.28 537.12-47L537.12-47L537.12-47Q538.80-48.72 541.20-48.72L541.20-48.72L541.20-48.72Q543.60-48.72 545.32-47L545.32-47L545.32-47Q547.04-45.28 547.04-42.88L547.04-42.88L547.04-42.88Q547.04-40.48 545.32-38.80L545.32-38.80L545.32-38.80Q543.60-37.12 541.20-37.12L541.20-37.12L541.20-37.12Q538.80-37.12 537.12-38.80" fill="#17153a" stroke="none" stroke-width="none" transform="translate(-272.759991645813,20.59165821347917)" style="fill: rgb(23, 21, 58);"></path></g></g>
</g>
</g>
<style id="breath-9e171c66-6841-4834-b2aa-ecd1b0bed7e1" data-anikit="">@keyframes breath-9e171c66-6841-4834-b2aa-ecd1b0bed7e1
{
  0% {
    animation-timing-function: cubic-bezier(0.9647,0.2413,-0.0705,0.7911);
    transform: scale(0.9099999999999999);
  }
  51% {
    animation-timing-function: cubic-bezier(0.9226,0.2631,-0.0308,0.7628);
    transform: scale(1.02994);
  }
  100% {
    transform: scale(0.9099999999999999);
  }
}</style></svg>